<?xml version="1.0" encoding="UTF-8" standalone="no"?>
<!DOCTYPE svg PUBLIC "-//W3C//DTD SVG 1.1//EN"
 "http://www.w3.org/Graphics/SVG/1.1/DTD/svg11.dtd">
<!-- Generated by graphviz version 2.43.0 (0)
 -->
<!-- Title: %3 Pages: 1 -->
<svg width="1059pt" height="1718pt"
 viewBox="0.00 0.00 1058.52 1718.00" xmlns="http://www.w3.org/2000/svg" xmlns:xlink="http://www.w3.org/1999/xlink">
<g id="graph0" class="graph" transform="scale(1 1) rotate(0) translate(4 1714)">
<title>%3</title>
<polygon fill="white" stroke="transparent" points="-4,4 -4,-1714 1054.52,-1714 1054.52,4 -4,4"/>
<!-- github.com/kubernetes/autoscaler/cluster&#45;autoscaler -->
<g id="node1" class="node">
<title>github.com/kubernetes/autoscaler/cluster&#45;autoscaler</title>
<ellipse fill="none" stroke="black" cx="255.43" cy="-855" rx="255.35" ry="18"/>
<text text-anchor="middle" x="255.43" y="-851.3" font-family="Times,serif" font-size="14.00">github.com/kubernetes/autoscaler/cluster&#45;autoscaler</text>
</g>
<!-- cloud.google.com/go -->
<g id="node2" class="node">
<title>cloud.google.com/go</title>
<ellipse fill="none" stroke="black" cx="836.69" cy="-1692" rx="105.08" ry="18"/>
<text text-anchor="middle" x="836.69" y="-1688.3" font-family="Times,serif" font-size="14.00">cloud.google.com/go</text>
</g>
<!-- github.com/kubernetes/autoscaler/cluster&#45;autoscaler&#45;&gt;cloud.google.com/go -->
<g id="edge1" class="edge">
<title>github.com/kubernetes/autoscaler/cluster&#45;autoscaler&#45;&gt;cloud.google.com/go</title>
<path fill="none" stroke="black" d="M256.26,-873.26C256.42,-971.37 271.04,-1439.46 528.85,-1652 588.39,-1701.08 677.7,-1707.68 744.64,-1704.01"/>
<polygon fill="black" stroke="black" points="745.01,-1707.5 754.76,-1703.37 744.56,-1700.51 745.01,-1707.5"/>
<text text-anchor="middle" x="566.85" y="-1692.8" font-family="Times,serif" font-size="14.00">DEPENDS</text>
</g>
<!-- github.com/Azure/azure&#45;sdk&#45;for&#45;go -->
<g id="node3" class="node">
<title>github.com/Azure/azure&#45;sdk&#45;for&#45;go</title>
<ellipse fill="none" stroke="black" cx="836.69" cy="-1638" rx="170.87" ry="18"/>
<text text-anchor="middle" x="836.69" y="-1634.3" font-family="Times,serif" font-size="14.00">github.com/Azure/azure&#45;sdk&#45;for&#45;go</text>
</g>
<!-- github.com/kubernetes/autoscaler/cluster&#45;autoscaler&#45;&gt;github.com/Azure/azure&#45;sdk&#45;for&#45;go -->
<g id="edge2" class="edge">
<title>github.com/kubernetes/autoscaler/cluster&#45;autoscaler&#45;&gt;github.com/Azure/azure&#45;sdk&#45;for&#45;go</title>
<path fill="none" stroke="black" d="M256.85,-873.14C260.09,-966.7 288.04,-1397.91 528.85,-1596 574.88,-1633.86 638.57,-1646.81 696,-1649.32"/>
<polygon fill="black" stroke="black" points="696.17,-1652.83 706.28,-1649.66 696.4,-1645.83 696.17,-1652.83"/>
<text text-anchor="middle" x="566.85" y="-1636.8" font-family="Times,serif" font-size="14.00">DEPENDS</text>
</g>
<!-- github.com/Azure/go&#45;autorest/autorest -->
<g id="node4" class="node">
<title>github.com/Azure/go&#45;autorest/autorest</title>
<ellipse fill="none" stroke="black" cx="836.69" cy="-1584" rx="190.37" ry="18"/>
<text text-anchor="middle" x="836.69" y="-1580.3" font-family="Times,serif" font-size="14.00">github.com/Azure/go&#45;autorest/autorest</text>
</g>
<!-- github.com/kubernetes/autoscaler/cluster&#45;autoscaler&#45;&gt;github.com/Azure/go&#45;autorest/autorest -->
<g id="edge3" class="edge">
<title>github.com/kubernetes/autoscaler/cluster&#45;autoscaler&#45;&gt;github.com/Azure/go&#45;autorest/autorest</title>
<path fill="none" stroke="black" d="M257.58,-873.1C264.25,-961.93 305.9,-1354.81 528.85,-1539 561.87,-1566.28 604,-1580.95 646.39,-1588.21"/>
<polygon fill="black" stroke="black" points="645.87,-1591.68 656.29,-1589.78 646.96,-1584.76 645.87,-1591.68"/>
<text text-anchor="middle" x="566.85" y="-1580.8" font-family="Times,serif" font-size="14.00">DEPENDS</text>
</g>
<!-- github.com/Azure/go&#45;autorest/autorest/adal -->
<g id="node5" class="node">
<title>github.com/Azure/go&#45;autorest/autorest/adal</title>
<ellipse fill="none" stroke="black" cx="836.69" cy="-1530" rx="213.36" ry="18"/>
<text text-anchor="middle" x="836.69" y="-1526.3" font-family="Times,serif" font-size="14.00">github.com/Azure/go&#45;autorest/autorest/adal</text>
</g>
<!-- github.com/kubernetes/autoscaler/cluster&#45;autoscaler&#45;&gt;github.com/Azure/go&#45;autorest/autorest/adal -->
<g id="edge4" class="edge">
<title>github.com/kubernetes/autoscaler/cluster&#45;autoscaler&#45;&gt;github.com/Azure/go&#45;autorest/autorest/adal</title>
<path fill="none" stroke="black" d="M258.42,-873.15C268.67,-957.26 323.19,-1312.13 528.85,-1482 553.81,-1502.61 583.94,-1516.2 615.44,-1524.92"/>
<polygon fill="black" stroke="black" points="614.7,-1528.34 625.26,-1527.47 616.46,-1521.57 614.7,-1528.34"/>
<text text-anchor="middle" x="566.85" y="-1523.8" font-family="Times,serif" font-size="14.00">DEPENDS</text>
</g>
<!-- github.com/Azure/go&#45;autorest/autorest/date -->
<g id="node6" class="node">
<title>github.com/Azure/go&#45;autorest/autorest/date</title>
<ellipse fill="none" stroke="black" cx="836.69" cy="-1476" rx="213.66" ry="18"/>
<text text-anchor="middle" x="836.69" y="-1472.3" font-family="Times,serif" font-size="14.00">github.com/Azure/go&#45;autorest/autorest/date</text>
</g>
<!-- github.com/kubernetes/autoscaler/cluster&#45;autoscaler&#45;&gt;github.com/Azure/go&#45;autorest/autorest/date -->
<g id="edge5" class="edge">
<title>github.com/kubernetes/autoscaler/cluster&#45;autoscaler&#45;&gt;github.com/Azure/go&#45;autorest/autorest/date</title>
<path fill="none" stroke="black" d="M259.42,-873.24C273.4,-952.47 339.82,-1269.79 528.85,-1425 554.78,-1446.29 586.19,-1460.25 618.89,-1469.18"/>
<polygon fill="black" stroke="black" points="618.06,-1472.58 628.61,-1471.68 619.8,-1465.8 618.06,-1472.58"/>
<text text-anchor="middle" x="566.85" y="-1466.8" font-family="Times,serif" font-size="14.00">DEPENDS</text>
</g>
<!-- github.com/Azure/go&#45;autorest/autorest/to -->
<g id="node7" class="node">
<title>github.com/Azure/go&#45;autorest/autorest/to</title>
<ellipse fill="none" stroke="black" cx="836.69" cy="-1422" rx="202.56" ry="18"/>
<text text-anchor="middle" x="836.69" y="-1418.3" font-family="Times,serif" font-size="14.00">github.com/Azure/go&#45;autorest/autorest/to</text>
</g>
<!-- github.com/kubernetes/autoscaler/cluster&#45;autoscaler&#45;&gt;github.com/Azure/go&#45;autorest/autorest/to -->
<g id="edge6" class="edge">
<title>github.com/kubernetes/autoscaler/cluster&#45;autoscaler&#45;&gt;github.com/Azure/go&#45;autorest/autorest/to</title>
<path fill="none" stroke="black" d="M260.65,-873.19C278.73,-946.9 356.62,-1226.1 528.85,-1367 557.98,-1390.83 593.92,-1405.77 630.83,-1414.89"/>
<polygon fill="black" stroke="black" points="630.21,-1418.34 640.74,-1417.2 631.8,-1411.52 630.21,-1418.34"/>
<text text-anchor="middle" x="566.85" y="-1409.8" font-family="Times,serif" font-size="14.00">DEPENDS</text>
</g>
<!-- github.com/aws/aws&#45;sdk&#45;go -->
<g id="node8" class="node">
<title>github.com/aws/aws&#45;sdk&#45;go</title>
<ellipse fill="none" stroke="black" cx="836.69" cy="-1368" rx="137.58" ry="18"/>
<text text-anchor="middle" x="836.69" y="-1364.3" font-family="Times,serif" font-size="14.00">github.com/aws/aws&#45;sdk&#45;go</text>
</g>
<!-- github.com/kubernetes/autoscaler/cluster&#45;autoscaler&#45;&gt;github.com/aws/aws&#45;sdk&#45;go -->
<g id="edge7" class="edge">
<title>github.com/kubernetes/autoscaler/cluster&#45;autoscaler&#45;&gt;github.com/aws/aws&#45;sdk&#45;go</title>
<path fill="none" stroke="black" d="M262.19,-873.25C284.61,-941.3 372.58,-1182.83 528.85,-1309 573.45,-1345.01 633.52,-1361.34 688.67,-1368.11"/>
<polygon fill="black" stroke="black" points="688.58,-1371.62 698.91,-1369.26 689.37,-1364.67 688.58,-1371.62"/>
<text text-anchor="middle" x="566.85" y="-1351.8" font-family="Times,serif" font-size="14.00">DEPENDS</text>
</g>
<!-- github.com/digitalocean/godo -->
<g id="node9" class="node">
<title>github.com/digitalocean/godo</title>
<ellipse fill="none" stroke="black" cx="836.69" cy="-1314" rx="147.57" ry="18"/>
<text text-anchor="middle" x="836.69" y="-1310.3" font-family="Times,serif" font-size="14.00">github.com/digitalocean/godo</text>
</g>
<!-- github.com/kubernetes/autoscaler/cluster&#45;autoscaler&#45;&gt;github.com/digitalocean/godo -->
<g id="edge8" class="edge">
<title>github.com/kubernetes/autoscaler/cluster&#45;autoscaler&#45;&gt;github.com/digitalocean/godo</title>
<path fill="none" stroke="black" d="M264.12,-873.24C291.1,-935.19 387.56,-1139.76 528.85,-1251 571.6,-1284.66 627.8,-1301.63 680.41,-1309.82"/>
<polygon fill="black" stroke="black" points="680.14,-1313.31 690.54,-1311.29 681.15,-1306.39 680.14,-1313.31"/>
<text text-anchor="middle" x="566.85" y="-1293.8" font-family="Times,serif" font-size="14.00">DEPENDS</text>
</g>
<!-- github.com/ghodss/yaml -->
<g id="node10" class="node">
<title>github.com/ghodss/yaml</title>
<ellipse fill="none" stroke="black" cx="836.69" cy="-1260" rx="124.28" ry="18"/>
<text text-anchor="middle" x="836.69" y="-1256.3" font-family="Times,serif" font-size="14.00">github.com/ghodss/yaml</text>
</g>
<!-- github.com/kubernetes/autoscaler/cluster&#45;autoscaler&#45;&gt;github.com/ghodss/yaml -->
<g id="edge9" class="edge">
<title>github.com/kubernetes/autoscaler/cluster&#45;autoscaler&#45;&gt;github.com/ghodss/yaml</title>
<path fill="none" stroke="black" d="M266.73,-873.37C298.7,-928.87 401.7,-1096.87 528.85,-1193 578.71,-1230.69 645.43,-1248.06 703.92,-1255.75"/>
<polygon fill="black" stroke="black" points="703.63,-1259.24 713.98,-1256.99 704.48,-1252.3 703.63,-1259.24"/>
<text text-anchor="middle" x="566.85" y="-1235.8" font-family="Times,serif" font-size="14.00">DEPENDS</text>
</g>
<!-- github.com/golang/mock -->
<g id="node11" class="node">
<title>github.com/golang/mock</title>
<ellipse fill="none" stroke="black" cx="836.69" cy="-1206" rx="124.28" ry="18"/>
<text text-anchor="middle" x="836.69" y="-1202.3" font-family="Times,serif" font-size="14.00">github.com/golang/mock</text>
</g>
<!-- github.com/kubernetes/autoscaler/cluster&#45;autoscaler&#45;&gt;github.com/golang/mock -->
<g id="edge10" class="edge">
<title>github.com/kubernetes/autoscaler/cluster&#45;autoscaler&#45;&gt;github.com/golang/mock</title>
<path fill="none" stroke="black" d="M269.92,-873.02C306.76,-921.21 413.97,-1054.85 528.85,-1136 580.96,-1172.8 649.35,-1190.59 708.34,-1199.06"/>
<polygon fill="black" stroke="black" points="708.1,-1202.56 718.48,-1200.44 709.04,-1195.63 708.1,-1202.56"/>
<text text-anchor="middle" x="566.85" y="-1177.8" font-family="Times,serif" font-size="14.00">DEPENDS</text>
</g>
<!-- github.com/jmespath/go&#45;jmespath -->
<g id="node12" class="node">
<title>github.com/jmespath/go&#45;jmespath</title>
<ellipse fill="none" stroke="black" cx="836.69" cy="-1152" rx="168.97" ry="18"/>
<text text-anchor="middle" x="836.69" y="-1148.3" font-family="Times,serif" font-size="14.00">github.com/jmespath/go&#45;jmespath</text>
</g>
<!-- github.com/kubernetes/autoscaler/cluster&#45;autoscaler&#45;&gt;github.com/jmespath/go&#45;jmespath -->
<g id="edge11" class="edge">
<title>github.com/kubernetes/autoscaler/cluster&#45;autoscaler&#45;&gt;github.com/jmespath/go&#45;jmespath</title>
<path fill="none" stroke="black" d="M271.86,-873.3C318.17,-926.49 462.69,-1080.12 622.85,-1125 644.9,-1131.18 668.63,-1135.94 691.96,-1139.62"/>
<polygon fill="black" stroke="black" points="691.52,-1143.1 701.93,-1141.13 692.57,-1136.17 691.52,-1143.1"/>
<text text-anchor="middle" x="566.85" y="-1120.8" font-family="Times,serif" font-size="14.00">DEPENDS</text>
</g>
<!-- github.com/json&#45;iterator/go -->
<g id="node13" class="node">
<title>github.com/json&#45;iterator/go</title>
<ellipse fill="none" stroke="black" cx="836.69" cy="-1098" rx="137.58" ry="18"/>
<text text-anchor="middle" x="836.69" y="-1094.3" font-family="Times,serif" font-size="14.00">github.com/json&#45;iterator/go</text>
</g>
<!-- github.com/kubernetes/autoscaler/cluster&#45;autoscaler&#45;&gt;github.com/json&#45;iterator/go -->
<g id="edge12" class="edge">
<title>github.com/kubernetes/autoscaler/cluster&#45;autoscaler&#45;&gt;github.com/json&#45;iterator/go</title>
<path fill="none" stroke="black" d="M277.66,-873.16C331.17,-917.59 477.62,-1031 622.85,-1071 649.64,-1078.38 678.88,-1083.75 706.88,-1087.65"/>
<polygon fill="black" stroke="black" points="706.76,-1091.17 717.13,-1089.03 707.69,-1084.23 706.76,-1091.17"/>
<text text-anchor="middle" x="566.85" y="-1067.8" font-family="Times,serif" font-size="14.00">DEPENDS</text>
</g>
<!-- github.com/pkg/errors -->
<g id="node14" class="node">
<title>github.com/pkg/errors</title>
<ellipse fill="none" stroke="black" cx="836.69" cy="-1044" rx="114.28" ry="18"/>
<text text-anchor="middle" x="836.69" y="-1040.3" font-family="Times,serif" font-size="14.00">github.com/pkg/errors</text>
</g>
<!-- github.com/kubernetes/autoscaler/cluster&#45;autoscaler&#45;&gt;github.com/pkg/errors -->
<g id="edge13" class="edge">
<title>github.com/kubernetes/autoscaler/cluster&#45;autoscaler&#45;&gt;github.com/pkg/errors</title>
<path fill="none" stroke="black" d="M288.05,-872.97C350.07,-907.28 492.94,-981.85 622.85,-1017 654.54,-1025.57 689.64,-1031.44 722.04,-1035.46"/>
<polygon fill="black" stroke="black" points="721.65,-1038.94 732,-1036.64 722.48,-1031.98 721.65,-1038.94"/>
<text text-anchor="middle" x="566.85" y="-1014.8" font-family="Times,serif" font-size="14.00">DEPENDS</text>
</g>
<!-- github.com/satori/go.uuid -->
<g id="node15" class="node">
<title>github.com/satori/go.uuid</title>
<ellipse fill="none" stroke="black" cx="836.69" cy="-990" rx="129.98" ry="18"/>
<text text-anchor="middle" x="836.69" y="-986.3" font-family="Times,serif" font-size="14.00">github.com/satori/go.uuid</text>
</g>
<!-- github.com/kubernetes/autoscaler/cluster&#45;autoscaler&#45;&gt;github.com/satori/go.uuid -->
<g id="edge14" class="edge">
<title>github.com/kubernetes/autoscaler/cluster&#45;autoscaler&#45;&gt;github.com/satori/go.uuid</title>
<path fill="none" stroke="black" d="M306.75,-872.63C376.77,-896.52 507.96,-938.94 622.85,-963 653.78,-969.47 687.57,-974.62 718.94,-978.61"/>
<polygon fill="black" stroke="black" points="718.68,-982.11 729.04,-979.87 719.54,-975.16 718.68,-982.11"/>
<text text-anchor="middle" x="566.85" y="-961.8" font-family="Times,serif" font-size="14.00">DEPENDS</text>
</g>
<!-- github.com/spf13/pflag -->
<g id="node16" class="node">
<title>github.com/spf13/pflag</title>
<ellipse fill="none" stroke="black" cx="836.69" cy="-936" rx="117.78" ry="18"/>
<text text-anchor="middle" x="836.69" y="-932.3" font-family="Times,serif" font-size="14.00">github.com/spf13/pflag</text>
</g>
<!-- github.com/kubernetes/autoscaler/cluster&#45;autoscaler&#45;&gt;github.com/spf13/pflag -->
<g id="edge15" class="edge">
<title>github.com/kubernetes/autoscaler/cluster&#45;autoscaler&#45;&gt;github.com/spf13/pflag</title>
<path fill="none" stroke="black" d="M363.37,-871.34C436.41,-882.36 535.42,-897.01 622.85,-909 659.04,-913.96 698.74,-919.08 733.94,-923.52"/>
<polygon fill="black" stroke="black" points="733.87,-927.03 744.23,-924.81 734.74,-920.09 733.87,-927.03"/>
<text text-anchor="middle" x="566.85" y="-909.8" font-family="Times,serif" font-size="14.00">DEPENDS</text>
</g>
<!-- github.com/stretchr/testify -->
<g id="node17" class="node">
<title>github.com/stretchr/testify</title>
<ellipse fill="none" stroke="black" cx="836.69" cy="-882" rx="135.68" ry="18"/>
<text text-anchor="middle" x="836.69" y="-878.3" font-family="Times,serif" font-size="14.00">github.com/stretchr/testify</text>
</g>
<!-- github.com/kubernetes/autoscaler/cluster&#45;autoscaler&#45;&gt;github.com/stretchr/testify -->
<g id="edge16" class="edge">
<title>github.com/kubernetes/autoscaler/cluster&#45;autoscaler&#45;&gt;github.com/stretchr/testify</title>
<path fill="none" stroke="black" d="M468.83,-864.9C545.46,-868.47 629.88,-872.41 698.39,-875.6"/>
<polygon fill="black" stroke="black" points="698.23,-879.1 708.38,-876.07 698.55,-872.1 698.23,-879.1"/>
<text text-anchor="middle" x="566.85" y="-873.8" font-family="Times,serif" font-size="14.00">DEPENDS</text>
</g>
<!-- golang.org/x/crypto -->
<g id="node18" class="node">
<title>golang.org/x/crypto</title>
<ellipse fill="none" stroke="black" cx="836.69" cy="-828" rx="101.28" ry="18"/>
<text text-anchor="middle" x="836.69" y="-824.3" font-family="Times,serif" font-size="14.00">golang.org/x/crypto</text>
</g>
<!-- github.com/kubernetes/autoscaler/cluster&#45;autoscaler&#45;&gt;golang.org/x/crypto -->
<g id="edge17" class="edge">
<title>github.com/kubernetes/autoscaler/cluster&#45;autoscaler&#45;&gt;golang.org/x/crypto</title>
<path fill="none" stroke="black" d="M468.83,-845.1C557.03,-840.99 655.54,-836.4 728.25,-833.01"/>
<polygon fill="black" stroke="black" points="728.51,-836.5 738.33,-832.54 728.18,-829.51 728.51,-836.5"/>
<text text-anchor="middle" x="566.85" y="-844.8" font-family="Times,serif" font-size="14.00">DEPENDS</text>
</g>
<!-- golang.org/x/oauth2 -->
<g id="node19" class="node">
<title>golang.org/x/oauth2</title>
<ellipse fill="none" stroke="black" cx="836.69" cy="-774" rx="103.98" ry="18"/>
<text text-anchor="middle" x="836.69" y="-770.3" font-family="Times,serif" font-size="14.00">golang.org/x/oauth2</text>
</g>
<!-- github.com/kubernetes/autoscaler/cluster&#45;autoscaler&#45;&gt;golang.org/x/oauth2 -->
<g id="edge18" class="edge">
<title>github.com/kubernetes/autoscaler/cluster&#45;autoscaler&#45;&gt;golang.org/x/oauth2</title>
<path fill="none" stroke="black" d="M363.37,-838.66C436.41,-827.64 535.42,-812.99 622.85,-801 661.48,-795.71 704.09,-790.23 740.98,-785.6"/>
<polygon fill="black" stroke="black" points="741.73,-789.03 751.22,-784.32 740.87,-782.09 741.73,-789.03"/>
<text text-anchor="middle" x="566.85" y="-816.8" font-family="Times,serif" font-size="14.00">DEPENDS</text>
</g>
<!-- google.golang.org/api -->
<g id="node20" class="node">
<title>google.golang.org/api</title>
<ellipse fill="none" stroke="black" cx="836.69" cy="-720" rx="111.28" ry="18"/>
<text text-anchor="middle" x="836.69" y="-716.3" font-family="Times,serif" font-size="14.00">google.golang.org/api</text>
</g>
<!-- github.com/kubernetes/autoscaler/cluster&#45;autoscaler&#45;&gt;google.golang.org/api -->
<g id="edge19" class="edge">
<title>github.com/kubernetes/autoscaler/cluster&#45;autoscaler&#45;&gt;google.golang.org/api</title>
<path fill="none" stroke="black" d="M306.75,-837.37C376.77,-813.48 507.96,-771.06 622.85,-747 657.36,-739.77 695.45,-734.2 729.75,-730.05"/>
<polygon fill="black" stroke="black" points="730.27,-733.51 739.79,-728.86 729.45,-726.56 730.27,-733.51"/>
<text text-anchor="middle" x="566.85" y="-771.8" font-family="Times,serif" font-size="14.00">DEPENDS</text>
</g>
<!-- gopkg.in/gcfg.v1 -->
<g id="node21" class="node">
<title>gopkg.in/gcfg.v1</title>
<ellipse fill="none" stroke="black" cx="836.69" cy="-666" rx="87.99" ry="18"/>
<text text-anchor="middle" x="836.69" y="-662.3" font-family="Times,serif" font-size="14.00">gopkg.in/gcfg.v1</text>
</g>
<!-- github.com/kubernetes/autoscaler/cluster&#45;autoscaler&#45;&gt;gopkg.in/gcfg.v1 -->
<g id="edge20" class="edge">
<title>github.com/kubernetes/autoscaler/cluster&#45;autoscaler&#45;&gt;gopkg.in/gcfg.v1</title>
<path fill="none" stroke="black" d="M288.03,-836.93C349.99,-802.43 492.78,-727.57 622.85,-693 661.52,-682.73 705.2,-676.32 742.88,-672.35"/>
<polygon fill="black" stroke="black" points="743.24,-675.83 752.84,-671.34 742.53,-668.86 743.24,-675.83"/>
<text text-anchor="middle" x="566.85" y="-726.8" font-family="Times,serif" font-size="14.00">DEPENDS</text>
</g>
<!-- gopkg.in/yaml.v2 -->
<g id="node22" class="node">
<title>gopkg.in/yaml.v2</title>
<ellipse fill="none" stroke="black" cx="836.69" cy="-612" rx="90.18" ry="18"/>
<text text-anchor="middle" x="836.69" y="-608.3" font-family="Times,serif" font-size="14.00">gopkg.in/yaml.v2</text>
</g>
<!-- github.com/kubernetes/autoscaler/cluster&#45;autoscaler&#45;&gt;gopkg.in/yaml.v2 -->
<g id="edge21" class="edge">
<title>github.com/kubernetes/autoscaler/cluster&#45;autoscaler&#45;&gt;gopkg.in/yaml.v2</title>
<path fill="none" stroke="black" d="M277.64,-836.75C331.09,-792.15 477.44,-678.35 622.85,-639 660.57,-628.8 703.1,-622.42 740.18,-618.45"/>
<polygon fill="black" stroke="black" points="740.89,-621.9 750.49,-617.39 740.18,-614.93 740.89,-621.9"/>
<text text-anchor="middle" x="566.85" y="-673.8" font-family="Times,serif" font-size="14.00">DEPENDS</text>
</g>
<!-- k8s.io/api -->
<g id="node23" class="node">
<title>k8s.io/api</title>
<ellipse fill="none" stroke="black" cx="836.69" cy="-558" rx="55.49" ry="18"/>
<text text-anchor="middle" x="836.69" y="-554.3" font-family="Times,serif" font-size="14.00">k8s.io/api</text>
</g>
<!-- github.com/kubernetes/autoscaler/cluster&#45;autoscaler&#45;&gt;k8s.io/api -->
<g id="edge22" class="edge">
<title>github.com/kubernetes/autoscaler/cluster&#45;autoscaler&#45;&gt;k8s.io/api</title>
<path fill="none" stroke="black" d="M271.51,-837.01C317.41,-783.98 462.11,-629.27 622.85,-585 671.89,-571.5 729.17,-564.72 771.95,-561.33"/>
<polygon fill="black" stroke="black" points="772.23,-564.82 781.94,-560.58 771.71,-557.84 772.23,-564.82"/>
<text text-anchor="middle" x="566.85" y="-624.8" font-family="Times,serif" font-size="14.00">DEPENDS</text>
</g>
<!-- k8s.io/apimachinery -->
<g id="node24" class="node">
<title>k8s.io/apimachinery</title>
<ellipse fill="none" stroke="black" cx="836.69" cy="-504" rx="103.98" ry="18"/>
<text text-anchor="middle" x="836.69" y="-500.3" font-family="Times,serif" font-size="14.00">k8s.io/apimachinery</text>
</g>
<!-- github.com/kubernetes/autoscaler/cluster&#45;autoscaler&#45;&gt;k8s.io/apimachinery -->
<g id="edge23" class="edge">
<title>github.com/kubernetes/autoscaler/cluster&#45;autoscaler&#45;&gt;k8s.io/apimachinery</title>
<path fill="none" stroke="black" d="M269.87,-836.85C306.57,-788.34 413.47,-653.89 528.85,-573 585.71,-533.14 661.79,-515.86 723.97,-508.55"/>
<polygon fill="black" stroke="black" points="724.67,-512 734.22,-507.42 723.9,-505.04 724.67,-512"/>
<text text-anchor="middle" x="566.85" y="-576.8" font-family="Times,serif" font-size="14.00">DEPENDS</text>
</g>
<!-- k8s.io/apiserver -->
<g id="node25" class="node">
<title>k8s.io/apiserver</title>
<ellipse fill="none" stroke="black" cx="836.69" cy="-450" rx="85.29" ry="18"/>
<text text-anchor="middle" x="836.69" y="-446.3" font-family="Times,serif" font-size="14.00">k8s.io/apiserver</text>
</g>
<!-- github.com/kubernetes/autoscaler/cluster&#45;autoscaler&#45;&gt;k8s.io/apiserver -->
<g id="edge24" class="edge">
<title>github.com/kubernetes/autoscaler/cluster&#45;autoscaler&#45;&gt;k8s.io/apiserver</title>
<path fill="none" stroke="black" d="M266.46,-836.91C298.01,-781.5 400.81,-612.05 528.85,-516 589.78,-470.3 675.64,-454.83 741.05,-450.2"/>
<polygon fill="black" stroke="black" points="741.61,-453.67 751.37,-449.55 741.16,-446.69 741.61,-453.67"/>
<text text-anchor="middle" x="566.85" y="-519.8" font-family="Times,serif" font-size="14.00">DEPENDS</text>
</g>
<!-- k8s.io/client&#45;go -->
<g id="node26" class="node">
<title>k8s.io/client&#45;go</title>
<ellipse fill="none" stroke="black" cx="836.69" cy="-396" rx="81.49" ry="18"/>
<text text-anchor="middle" x="836.69" y="-392.3" font-family="Times,serif" font-size="14.00">k8s.io/client&#45;go</text>
</g>
<!-- github.com/kubernetes/autoscaler/cluster&#45;autoscaler&#45;&gt;k8s.io/client&#45;go -->
<g id="edge25" class="edge">
<title>github.com/kubernetes/autoscaler/cluster&#45;autoscaler&#45;&gt;k8s.io/client&#45;go</title>
<path fill="none" stroke="black" d="M263.83,-837C290.22,-774.94 385.84,-567.72 528.85,-457 590.64,-409.17 679.88,-395.83 746.21,-393.33"/>
<polygon fill="black" stroke="black" points="746.35,-396.82 756.24,-393.02 746.13,-389.83 746.35,-396.82"/>
<text text-anchor="middle" x="566.85" y="-460.8" font-family="Times,serif" font-size="14.00">DEPENDS</text>
</g>
<!-- k8s.io/cloud&#45;provider -->
<g id="node27" class="node">
<title>k8s.io/cloud&#45;provider</title>
<ellipse fill="none" stroke="black" cx="836.69" cy="-342" rx="108.58" ry="18"/>
<text text-anchor="middle" x="836.69" y="-338.3" font-family="Times,serif" font-size="14.00">k8s.io/cloud&#45;provider</text>
</g>
<!-- github.com/kubernetes/autoscaler/cluster&#45;autoscaler&#45;&gt;k8s.io/cloud&#45;provider -->
<g id="edge26" class="edge">
<title>github.com/kubernetes/autoscaler/cluster&#45;autoscaler&#45;&gt;k8s.io/cloud&#45;provider</title>
<path fill="none" stroke="black" d="M261.89,-836.96C283.52,-768.58 369.83,-523.02 528.85,-398 582.79,-355.6 658.49,-341.45 721.21,-337.98"/>
<polygon fill="black" stroke="black" points="721.73,-341.46 731.55,-337.49 721.4,-334.46 721.73,-341.46"/>
<text text-anchor="middle" x="566.85" y="-401.8" font-family="Times,serif" font-size="14.00">DEPENDS</text>
</g>
<!-- k8s.io/component&#45;base -->
<g id="node28" class="node">
<title>k8s.io/component&#45;base</title>
<ellipse fill="none" stroke="black" cx="836.69" cy="-288" rx="116.18" ry="18"/>
<text text-anchor="middle" x="836.69" y="-284.3" font-family="Times,serif" font-size="14.00">k8s.io/component&#45;base</text>
</g>
<!-- github.com/kubernetes/autoscaler/cluster&#45;autoscaler&#45;&gt;k8s.io/component&#45;base -->
<g id="edge27" class="edge">
<title>github.com/kubernetes/autoscaler/cluster&#45;autoscaler&#45;&gt;k8s.io/component&#45;base</title>
<path fill="none" stroke="black" d="M260.44,-836.81C277.82,-762.5 353.73,-479.34 528.85,-340 581.52,-298.1 655.58,-284.66 717.74,-281.91"/>
<polygon fill="black" stroke="black" points="718.14,-285.4 728.01,-281.55 717.89,-278.4 718.14,-285.4"/>
<text text-anchor="middle" x="566.85" y="-343.8" font-family="Times,serif" font-size="14.00">DEPENDS</text>
</g>
<!-- k8s.io/component&#45;helpers -->
<g id="node29" class="node">
<title>k8s.io/component&#45;helpers</title>
<ellipse fill="none" stroke="black" cx="836.69" cy="-234" rx="129.98" ry="18"/>
<text text-anchor="middle" x="836.69" y="-230.3" font-family="Times,serif" font-size="14.00">k8s.io/component&#45;helpers</text>
</g>
<!-- github.com/kubernetes/autoscaler/cluster&#45;autoscaler&#45;&gt;k8s.io/component&#45;helpers -->
<g id="edge28" class="edge">
<title>github.com/kubernetes/autoscaler/cluster&#45;autoscaler&#45;&gt;k8s.io/component&#45;helpers</title>
<path fill="none" stroke="black" d="M259.22,-836.8C272.49,-757.01 336.62,-435.36 528.85,-282 579.46,-241.63 650.09,-228.57 710.83,-226.08"/>
<polygon fill="black" stroke="black" points="710.99,-229.58 720.88,-225.76 710.77,-222.58 710.99,-229.58"/>
<text text-anchor="middle" x="566.85" y="-285.8" font-family="Times,serif" font-size="14.00">DEPENDS</text>
</g>
<!-- k8s.io/klog/v2 -->
<g id="node30" class="node">
<title>k8s.io/klog/v2</title>
<ellipse fill="none" stroke="black" cx="836.69" cy="-180" rx="74.99" ry="18"/>
<text text-anchor="middle" x="836.69" y="-176.3" font-family="Times,serif" font-size="14.00">k8s.io/klog/v2</text>
</g>
<!-- github.com/kubernetes/autoscaler/cluster&#45;autoscaler&#45;&gt;k8s.io/klog/v2 -->
<g id="edge29" class="edge">
<title>github.com/kubernetes/autoscaler/cluster&#45;autoscaler&#45;&gt;k8s.io/klog/v2</title>
<path fill="none" stroke="black" d="M258.19,-836.83C267.49,-751.86 318.6,-390.95 528.85,-224 594.1,-172.2 692.63,-166.96 760.34,-170.91"/>
<polygon fill="black" stroke="black" points="760.3,-174.41 770.51,-171.58 760.77,-167.43 760.3,-174.41"/>
<text text-anchor="middle" x="566.85" y="-227.8" font-family="Times,serif" font-size="14.00">DEPENDS</text>
</g>
<!-- k8s.io/kubernetes -->
<g id="node31" class="node">
<title>k8s.io/kubernetes</title>
<ellipse fill="none" stroke="black" cx="836.69" cy="-126" rx="92.88" ry="18"/>
<text text-anchor="middle" x="836.69" y="-122.3" font-family="Times,serif" font-size="14.00">k8s.io/kubernetes</text>
</g>
<!-- github.com/kubernetes/autoscaler/cluster&#45;autoscaler&#45;&gt;k8s.io/kubernetes -->
<g id="edge30" class="edge">
<title>github.com/kubernetes/autoscaler/cluster&#45;autoscaler&#45;&gt;k8s.io/kubernetes</title>
<path fill="none" stroke="black" d="M257.37,-836.9C263.07,-747.26 300.93,-347.88 528.85,-167 590.62,-117.99 682.37,-111.69 749.45,-115.24"/>
<polygon fill="black" stroke="black" points="749.38,-118.74 759.58,-115.86 749.81,-111.76 749.38,-118.74"/>
<text text-anchor="middle" x="566.85" y="-170.8" font-family="Times,serif" font-size="14.00">DEPENDS</text>
</g>
<!-- k8s.io/legacy&#45;cloud&#45;providers -->
<g id="node32" class="node">
<title>k8s.io/legacy&#45;cloud&#45;providers</title>
<ellipse fill="none" stroke="black" cx="836.69" cy="-72" rx="145.67" ry="18"/>
<text text-anchor="middle" x="836.69" y="-68.3" font-family="Times,serif" font-size="14.00">k8s.io/legacy&#45;cloud&#45;providers</text>
</g>
<!-- github.com/kubernetes/autoscaler/cluster&#45;autoscaler&#45;&gt;k8s.io/legacy&#45;cloud&#45;providers -->
<g id="edge31" class="edge">
<title>github.com/kubernetes/autoscaler/cluster&#45;autoscaler&#45;&gt;k8s.io/legacy&#45;cloud&#45;providers</title>
<path fill="none" stroke="black" d="M256.68,-836.92C259.05,-742.73 283.35,-305.2 528.85,-110 582.89,-67.04 660.08,-57.65 723.52,-58.95"/>
<polygon fill="black" stroke="black" points="723.48,-62.45 733.58,-59.25 723.69,-55.45 723.48,-62.45"/>
<text text-anchor="middle" x="566.85" y="-113.8" font-family="Times,serif" font-size="14.00">DEPENDS</text>
</g>
<!-- k8s.io/utils -->
<g id="node33" class="node">
<title>k8s.io/utils</title>
<ellipse fill="none" stroke="black" cx="836.69" cy="-18" rx="61.99" ry="18"/>
<text text-anchor="middle" x="836.69" y="-14.3" font-family="Times,serif" font-size="14.00">k8s.io/utils</text>
</g>
<!-- github.com/kubernetes/autoscaler/cluster&#45;autoscaler&#45;&gt;k8s.io/utils -->
<g id="edge32" class="edge">
<title>github.com/kubernetes/autoscaler/cluster&#45;autoscaler&#45;&gt;k8s.io/utils</title>
<path fill="none" stroke="black" d="M256.15,-836.89C255.71,-738.52 267.56,-265.24 528.85,-54 597.88,1.81 705.9,0.5 773.65,-7.39"/>
<polygon fill="black" stroke="black" points="773.39,-10.89 783.75,-8.66 774.26,-3.94 773.39,-10.89"/>
<text text-anchor="middle" x="566.85" y="-57.8" font-family="Times,serif" font-size="14.00">DEPENDS</text>
</g>
</g>
</svg>
