<?xml version="1.0" encoding="UTF-8" standalone="no"?>
<!DOCTYPE svg PUBLIC "-//W3C//DTD SVG 1.1//EN"
 "http://www.w3.org/Graphics/SVG/1.1/DTD/svg11.dtd">
<!-- Generated by graphviz version 2.43.0 (0)
 -->
<!-- Title: %3 Pages: 1 -->
<svg width="8855pt" height="218pt"
 viewBox="0.00 0.00 8855.29 218.00" xmlns="http://www.w3.org/2000/svg" xmlns:xlink="http://www.w3.org/1999/xlink">
<g id="graph0" class="graph" transform="scale(1 1) rotate(0) translate(4 214)">
<title>%3</title>
<polygon fill="white" stroke="transparent" points="-4,4 -4,-214 8851.29,-214 8851.29,4 -4,4"/>
<!-- cluster&#45;autoscaler:v1.17.2 -->
<g id="node1" class="node">
<title>cluster&#45;autoscaler:v1.17.2</title>
<ellipse fill="none" stroke="black" cx="7621.29" cy="-192" rx="131.88" ry="18"/>
<text text-anchor="middle" x="7621.29" y="-188.3" font-family="Times,serif" font-size="14.00">cluster&#45;autoscaler:v1.17.2</text>
</g>
<!-- distroless -->
<g id="node2" class="node">
<title>distroless</title>
<ellipse fill="none" stroke="black" cx="8636.29" cy="-105" rx="55.79" ry="18"/>
<text text-anchor="middle" x="8636.29" y="-101.3" font-family="Times,serif" font-size="14.00">distroless</text>
</g>
<!-- cluster&#45;autoscaler:v1.17.2&#45;&gt;distroless -->
<g id="edge1" class="edge">
<title>cluster&#45;autoscaler:v1.17.2&#45;&gt;distroless</title>
<path fill="none" stroke="black" d="M7730.4,-181.86C7942.39,-164.11 8403.93,-125.46 8572.78,-111.32"/>
<polygon fill="black" stroke="black" points="8573.08,-114.81 8582.76,-110.48 8572.5,-107.83 8573.08,-114.81"/>
<text text-anchor="middle" x="8229.79" y="-144.8" font-family="Times,serif" font-size="14.00">CONTAINS</text>
</g>
<!-- github.com/kubernetes/autoscaler/cluster&#45;autoscaler -->
<g id="node3" class="node">
<title>github.com/kubernetes/autoscaler/cluster&#45;autoscaler</title>
<ellipse fill="none" stroke="black" cx="5258.29" cy="-105" rx="255.35" ry="18"/>
<text text-anchor="middle" x="5258.29" y="-101.3" font-family="Times,serif" font-size="14.00">github.com/kubernetes/autoscaler/cluster&#45;autoscaler</text>
</g>
<!-- cluster&#45;autoscaler:v1.17.2&#45;&gt;github.com/kubernetes/autoscaler/cluster&#45;autoscaler -->
<g id="edge2" class="edge">
<title>cluster&#45;autoscaler:v1.17.2&#45;&gt;github.com/kubernetes/autoscaler/cluster&#45;autoscaler</title>
<path fill="none" stroke="black" d="M7495.5,-186.48C7116.6,-172.85 5982.09,-132.04 5490.11,-114.34"/>
<polygon fill="black" stroke="black" points="5490.16,-110.84 5480.04,-113.98 5489.91,-117.83 5490.16,-110.84"/>
<text text-anchor="middle" x="6620.79" y="-144.8" font-family="Times,serif" font-size="14.00">CONTAINS</text>
</g>
<!-- base -->
<g id="node5" class="node">
<title>base</title>
<ellipse fill="none" stroke="black" cx="8687.29" cy="-18" rx="32.49" ry="18"/>
<text text-anchor="middle" x="8687.29" y="-14.3" font-family="Times,serif" font-size="14.00">base</text>
</g>
<!-- distroless&#45;&gt;base -->
<g id="edge4" class="edge">
<title>distroless&#45;&gt;base</title>
<path fill="none" stroke="black" d="M8651.45,-87.63C8656.24,-81.98 8661.31,-75.45 8665.29,-69 8669.85,-61.62 8673.95,-53.14 8677.35,-45.28"/>
<polygon fill="black" stroke="black" points="8680.69,-46.37 8681.26,-35.79 8674.21,-43.71 8680.69,-46.37"/>
<text text-anchor="middle" x="8711.79" y="-57.8" font-family="Times,serif" font-size="14.00">CONTAINS</text>
</g>
<!-- netbase -->
<g id="node6" class="node">
<title>netbase</title>
<ellipse fill="none" stroke="black" cx="8789.29" cy="-18" rx="47.39" ry="18"/>
<text text-anchor="middle" x="8789.29" y="-14.3" font-family="Times,serif" font-size="14.00">netbase</text>
</g>
<!-- distroless&#45;&gt;netbase -->
<g id="edge5" class="edge">
<title>distroless&#45;&gt;netbase</title>
<path fill="none" stroke="black" d="M8686.61,-97.12C8709.23,-92.13 8735.28,-83.59 8755.29,-69 8763.85,-62.76 8770.95,-53.67 8776.4,-44.94"/>
<polygon fill="black" stroke="black" points="8779.53,-46.53 8781.49,-36.12 8773.46,-43.03 8779.53,-46.53"/>
<text text-anchor="middle" x="8807.79" y="-57.8" font-family="Times,serif" font-size="14.00">CONTAINS</text>
</g>
<!-- tzdata -->
<g id="node7" class="node">
<title>tzdata</title>
<ellipse fill="none" stroke="black" cx="8585.29" cy="-18" rx="40.09" ry="18"/>
<text text-anchor="middle" x="8585.29" y="-14.3" font-family="Times,serif" font-size="14.00">tzdata</text>
</g>
<!-- distroless&#45;&gt;tzdata -->
<g id="edge6" class="edge">
<title>distroless&#45;&gt;tzdata</title>
<path fill="none" stroke="black" d="M8603.96,-90.26C8595.37,-84.94 8587.15,-77.93 8582.29,-69 8578.58,-62.17 8577.82,-54.02 8578.42,-46.29"/>
<polygon fill="black" stroke="black" points="8581.91,-46.6 8579.9,-36.2 8574.98,-45.58 8581.91,-46.6"/>
<text text-anchor="middle" x="8621.79" y="-57.8" font-family="Times,serif" font-size="14.00">CONTAINS</text>
</g>
<!-- cloud.google.com/go -->
<g id="node8" class="node">
<title>cloud.google.com/go</title>
<ellipse fill="none" stroke="black" cx="105.29" cy="-18" rx="105.08" ry="18"/>
<text text-anchor="middle" x="105.29" y="-14.3" font-family="Times,serif" font-size="14.00">cloud.google.com/go</text>
</g>
<!-- github.com/kubernetes/autoscaler/cluster&#45;autoscaler&#45;&gt;cloud.google.com/go -->
<g id="edge7" class="edge">
<title>github.com/kubernetes/autoscaler/cluster&#45;autoscaler&#45;&gt;cloud.google.com/go</title>
<path fill="none" stroke="black" d="M5003.27,-103.81C4179.49,-102.9 1594.94,-97.76 759.29,-69 518.99,-60.73 458.43,-61.09 219.29,-36 209.44,-34.97 199.14,-33.7 188.92,-32.32"/>
<polygon fill="black" stroke="black" points="189.15,-28.82 178.76,-30.92 188.19,-35.75 189.15,-28.82"/>
<text text-anchor="middle" x="797.29" y="-57.8" font-family="Times,serif" font-size="14.00">DEPENDS</text>
</g>
<!-- github.com/Azure/azure&#45;sdk&#45;for&#45;go -->
<g id="node9" class="node">
<title>github.com/Azure/azure&#45;sdk&#45;for&#45;go</title>
<ellipse fill="none" stroke="black" cx="399.29" cy="-18" rx="170.87" ry="18"/>
<text text-anchor="middle" x="399.29" y="-14.3" font-family="Times,serif" font-size="14.00">github.com/Azure/azure&#45;sdk&#45;for&#45;go</text>
</g>
<!-- github.com/kubernetes/autoscaler/cluster&#45;autoscaler&#45;&gt;github.com/Azure/azure&#45;sdk&#45;for&#45;go -->
<g id="edge8" class="edge">
<title>github.com/kubernetes/autoscaler/cluster&#45;autoscaler&#45;&gt;github.com/Azure/azure&#45;sdk&#45;for&#45;go</title>
<path fill="none" stroke="black" d="M5003.63,-103.37C4232.26,-101.2 1928.44,-92.87 1178.29,-69 911.8,-60.52 845.18,-55.87 579.29,-36 562.94,-34.78 545.76,-33.35 528.78,-31.84"/>
<polygon fill="black" stroke="black" points="529.08,-28.36 518.81,-30.95 528.46,-35.33 529.08,-28.36"/>
<text text-anchor="middle" x="1216.29" y="-57.8" font-family="Times,serif" font-size="14.00">DEPENDS</text>
</g>
<!-- github.com/Azure/go&#45;autorest/autorest -->
<g id="node10" class="node">
<title>github.com/Azure/go&#45;autorest/autorest</title>
<ellipse fill="none" stroke="black" cx="778.29" cy="-18" rx="190.37" ry="18"/>
<text text-anchor="middle" x="778.29" y="-14.3" font-family="Times,serif" font-size="14.00">github.com/Azure/go&#45;autorest/autorest</text>
</g>
<!-- github.com/kubernetes/autoscaler/cluster&#45;autoscaler&#45;&gt;github.com/Azure/go&#45;autorest/autorest -->
<g id="edge9" class="edge">
<title>github.com/kubernetes/autoscaler/cluster&#45;autoscaler&#45;&gt;github.com/Azure/go&#45;autorest/autorest</title>
<path fill="none" stroke="black" d="M5004.29,-102.93C4291.74,-99.7 2283.08,-89.05 1623.29,-69 1336.38,-60.28 1264.67,-55.49 978.29,-36 959.79,-34.74 940.33,-33.27 921.12,-31.73"/>
<polygon fill="black" stroke="black" points="921.35,-28.24 911.11,-30.92 920.79,-35.22 921.35,-28.24"/>
<text text-anchor="middle" x="1661.29" y="-57.8" font-family="Times,serif" font-size="14.00">DEPENDS</text>
</g>
<!-- github.com/Azure/go&#45;autorest/autorest/adal -->
<g id="node11" class="node">
<title>github.com/Azure/go&#45;autorest/autorest/adal</title>
<ellipse fill="none" stroke="black" cx="1200.29" cy="-18" rx="213.36" ry="18"/>
<text text-anchor="middle" x="1200.29" y="-14.3" font-family="Times,serif" font-size="14.00">github.com/Azure/go&#45;autorest/autorest/adal</text>
</g>
<!-- github.com/kubernetes/autoscaler/cluster&#45;autoscaler&#45;&gt;github.com/Azure/go&#45;autorest/autorest/adal -->
<g id="edge10" class="edge">
<title>github.com/kubernetes/autoscaler/cluster&#45;autoscaler&#45;&gt;github.com/Azure/go&#45;autorest/autorest/adal</title>
<path fill="none" stroke="black" d="M5005.08,-102.62C4351.69,-98.83 2619.84,-87.34 2045.29,-69 1768.15,-60.15 1698.99,-53.92 1422.29,-36 1401.89,-34.68 1380.45,-33.18 1359.27,-31.63"/>
<polygon fill="black" stroke="black" points="1359.46,-28.13 1349.23,-30.89 1358.94,-35.11 1359.46,-28.13"/>
<text text-anchor="middle" x="2083.29" y="-57.8" font-family="Times,serif" font-size="14.00">DEPENDS</text>
</g>
<!-- github.com/Azure/go&#45;autorest/autorest/date -->
<g id="node12" class="node">
<title>github.com/Azure/go&#45;autorest/autorest/date</title>
<ellipse fill="none" stroke="black" cx="1645.29" cy="-18" rx="213.66" ry="18"/>
<text text-anchor="middle" x="1645.29" y="-14.3" font-family="Times,serif" font-size="14.00">github.com/Azure/go&#45;autorest/autorest/date</text>
</g>
<!-- github.com/kubernetes/autoscaler/cluster&#45;autoscaler&#45;&gt;github.com/Azure/go&#45;autorest/autorest/date -->
<g id="edge11" class="edge">
<title>github.com/kubernetes/autoscaler/cluster&#45;autoscaler&#45;&gt;github.com/Azure/go&#45;autorest/autorest/date</title>
<path fill="none" stroke="black" d="M5004.97,-102.56C4402.49,-98.85 2896.85,-87.96 2392.29,-69 2187.55,-61.31 1951.73,-44.13 1800.73,-32.07"/>
<polygon fill="black" stroke="black" points="1800.71,-28.55 1790.46,-31.24 1800.15,-35.53 1800.71,-28.55"/>
<text text-anchor="middle" x="2430.29" y="-57.8" font-family="Times,serif" font-size="14.00">DEPENDS</text>
</g>
<!-- github.com/Azure/go&#45;autorest/autorest/to -->
<g id="node13" class="node">
<title>github.com/Azure/go&#45;autorest/autorest/to</title>
<ellipse fill="none" stroke="black" cx="2080.29" cy="-18" rx="202.56" ry="18"/>
<text text-anchor="middle" x="2080.29" y="-14.3" font-family="Times,serif" font-size="14.00">github.com/Azure/go&#45;autorest/autorest/to</text>
</g>
<!-- github.com/kubernetes/autoscaler/cluster&#45;autoscaler&#45;&gt;github.com/Azure/go&#45;autorest/autorest/to -->
<g id="edge12" class="edge">
<title>github.com/kubernetes/autoscaler/cluster&#45;autoscaler&#45;&gt;github.com/Azure/go&#45;autorest/autorest/to</title>
<path fill="none" stroke="black" d="M5004.73,-102.75C4448.41,-99.64 3134.96,-90.23 2690.29,-69 2527.95,-61.25 2341.85,-44.91 2218.33,-33.02"/>
<polygon fill="black" stroke="black" points="2218.35,-29.5 2208.06,-32.02 2217.68,-36.47 2218.35,-29.5"/>
<text text-anchor="middle" x="2728.29" y="-57.8" font-family="Times,serif" font-size="14.00">DEPENDS</text>
</g>
<!-- github.com/aws/aws&#45;sdk&#45;go -->
<g id="node14" class="node">
<title>github.com/aws/aws&#45;sdk&#45;go</title>
<ellipse fill="none" stroke="black" cx="2439.29" cy="-18" rx="137.58" ry="18"/>
<text text-anchor="middle" x="2439.29" y="-14.3" font-family="Times,serif" font-size="14.00">github.com/aws/aws&#45;sdk&#45;go</text>
</g>
<!-- github.com/kubernetes/autoscaler/cluster&#45;autoscaler&#45;&gt;github.com/aws/aws&#45;sdk&#45;go -->
<g id="edge13" class="edge">
<title>github.com/kubernetes/autoscaler/cluster&#45;autoscaler&#45;&gt;github.com/aws/aws&#45;sdk&#45;go</title>
<path fill="none" stroke="black" d="M5006.05,-102.16C4500.68,-98.14 3379.67,-87.42 2995.29,-69 2812.69,-60.25 2767.22,-53.91 2585.29,-36 2572.74,-34.76 2559.6,-33.37 2546.56,-31.93"/>
<polygon fill="black" stroke="black" points="2546.95,-28.45 2536.62,-30.82 2546.17,-35.41 2546.95,-28.45"/>
<text text-anchor="middle" x="3033.29" y="-57.8" font-family="Times,serif" font-size="14.00">DEPENDS</text>
</g>
<!-- github.com/digitalocean/godo -->
<g id="node15" class="node">
<title>github.com/digitalocean/godo</title>
<ellipse fill="none" stroke="black" cx="2742.29" cy="-18" rx="147.57" ry="18"/>
<text text-anchor="middle" x="2742.29" y="-14.3" font-family="Times,serif" font-size="14.00">github.com/digitalocean/godo</text>
</g>
<!-- github.com/kubernetes/autoscaler/cluster&#45;autoscaler&#45;&gt;github.com/digitalocean/godo -->
<g id="edge14" class="edge">
<title>github.com/kubernetes/autoscaler/cluster&#45;autoscaler&#45;&gt;github.com/digitalocean/godo</title>
<path fill="none" stroke="black" d="M5006.22,-101.9C4547.33,-97.7 3592.31,-87.06 3260.29,-69 3119.36,-61.33 2957.55,-44.41 2852.81,-32.37"/>
<polygon fill="black" stroke="black" points="2853.19,-28.9 2842.86,-31.23 2852.39,-35.85 2853.19,-28.9"/>
<text text-anchor="middle" x="3298.29" y="-57.8" font-family="Times,serif" font-size="14.00">DEPENDS</text>
</g>
<!-- github.com/ghodss/yaml -->
<g id="node16" class="node">
<title>github.com/ghodss/yaml</title>
<ellipse fill="none" stroke="black" cx="3032.29" cy="-18" rx="124.28" ry="18"/>
<text text-anchor="middle" x="3032.29" y="-14.3" font-family="Times,serif" font-size="14.00">github.com/ghodss/yaml</text>
</g>
<!-- github.com/kubernetes/autoscaler/cluster&#45;autoscaler&#45;&gt;github.com/ghodss/yaml -->
<g id="edge15" class="edge">
<title>github.com/kubernetes/autoscaler/cluster&#45;autoscaler&#45;&gt;github.com/ghodss/yaml</title>
<path fill="none" stroke="black" d="M5003.19,-103.88C4669.66,-102.54 4067.37,-96.11 3553.29,-69 3380.46,-59.89 3337.39,-54.31 3165.29,-36 3154.01,-34.8 3142.21,-33.44 3130.49,-32.03"/>
<polygon fill="black" stroke="black" points="3130.58,-28.51 3120.23,-30.77 3129.73,-35.46 3130.58,-28.51"/>
<text text-anchor="middle" x="3591.29" y="-57.8" font-family="Times,serif" font-size="14.00">DEPENDS</text>
</g>
<!-- github.com/golang/mock -->
<g id="node17" class="node">
<title>github.com/golang/mock</title>
<ellipse fill="none" stroke="black" cx="3298.29" cy="-18" rx="124.28" ry="18"/>
<text text-anchor="middle" x="3298.29" y="-14.3" font-family="Times,serif" font-size="14.00">github.com/golang/mock</text>
</g>
<!-- github.com/kubernetes/autoscaler/cluster&#45;autoscaler&#45;&gt;github.com/golang/mock -->
<g id="edge16" class="edge">
<title>github.com/kubernetes/autoscaler/cluster&#45;autoscaler&#45;&gt;github.com/golang/mock</title>
<path fill="none" stroke="black" d="M5009.19,-100.95C4736.19,-96.83 4285.36,-87.72 3897.29,-69 3689.9,-59 3637.91,-56.5 3431.29,-36 3419.71,-34.85 3407.58,-33.5 3395.55,-32.08"/>
<polygon fill="black" stroke="black" points="3395.84,-28.58 3385.49,-30.86 3395,-35.53 3395.84,-28.58"/>
<text text-anchor="middle" x="3935.29" y="-57.8" font-family="Times,serif" font-size="14.00">DEPENDS</text>
</g>
<!-- github.com/jmespath/go&#45;jmespath -->
<g id="node18" class="node">
<title>github.com/jmespath/go&#45;jmespath</title>
<ellipse fill="none" stroke="black" cx="3609.29" cy="-18" rx="168.97" ry="18"/>
<text text-anchor="middle" x="3609.29" y="-14.3" font-family="Times,serif" font-size="14.00">github.com/jmespath/go&#45;jmespath</text>
</g>
<!-- github.com/kubernetes/autoscaler/cluster&#45;autoscaler&#45;&gt;github.com/jmespath/go&#45;jmespath -->
<g id="edge17" class="edge">
<title>github.com/kubernetes/autoscaler/cluster&#45;autoscaler&#45;&gt;github.com/jmespath/go&#45;jmespath</title>
<path fill="none" stroke="black" d="M5012.8,-99.97C4791.37,-95.43 4456.82,-86.29 4166.29,-69 3997.51,-58.95 3955.67,-51.37 3787.29,-36 3772.07,-34.61 3756.13,-33.13 3740.3,-31.64"/>
<polygon fill="black" stroke="black" points="3740.21,-28.11 3729.92,-30.66 3739.55,-35.08 3740.21,-28.11"/>
<text text-anchor="middle" x="4204.29" y="-57.8" font-family="Times,serif" font-size="14.00">DEPENDS</text>
</g>
<!-- github.com/json&#45;iterator/go -->
<g id="node19" class="node">
<title>github.com/json&#45;iterator/go</title>
<ellipse fill="none" stroke="black" cx="3934.29" cy="-18" rx="137.58" ry="18"/>
<text text-anchor="middle" x="3934.29" y="-14.3" font-family="Times,serif" font-size="14.00">github.com/json&#45;iterator/go</text>
</g>
<!-- github.com/kubernetes/autoscaler/cluster&#45;autoscaler&#45;&gt;github.com/json&#45;iterator/go -->
<g id="edge18" class="edge">
<title>github.com/kubernetes/autoscaler/cluster&#45;autoscaler&#45;&gt;github.com/json&#45;iterator/go</title>
<path fill="none" stroke="black" d="M5023.04,-97.96C4852.96,-92.7 4617.74,-83.58 4411.29,-69 4264.26,-58.62 4227.84,-51.8 4081.29,-36 4069,-34.67 4056.13,-33.25 4043.34,-31.8"/>
<polygon fill="black" stroke="black" points="4043.44,-28.29 4033.11,-30.64 4042.65,-35.25 4043.44,-28.29"/>
<text text-anchor="middle" x="4449.29" y="-57.8" font-family="Times,serif" font-size="14.00">DEPENDS</text>
</g>
<!-- github.com/pkg/errors -->
<g id="node20" class="node">
<title>github.com/pkg/errors</title>
<ellipse fill="none" stroke="black" cx="4204.29" cy="-18" rx="114.28" ry="18"/>
<text text-anchor="middle" x="4204.29" y="-14.3" font-family="Times,serif" font-size="14.00">github.com/pkg/errors</text>
</g>
<!-- github.com/kubernetes/autoscaler/cluster&#45;autoscaler&#45;&gt;github.com/pkg/errors -->
<g id="edge19" class="edge">
<title>github.com/kubernetes/autoscaler/cluster&#45;autoscaler&#45;&gt;github.com/pkg/errors</title>
<path fill="none" stroke="black" d="M5056.08,-93.99C4941.38,-87.83 4795.22,-79.17 4665.29,-69 4514.81,-57.22 4477.19,-53.67 4327.29,-36 4317.07,-34.8 4306.38,-33.45 4295.76,-32.05"/>
<polygon fill="black" stroke="black" points="4295.99,-28.55 4285.61,-30.71 4295.06,-35.49 4295.99,-28.55"/>
<text text-anchor="middle" x="4703.29" y="-57.8" font-family="Times,serif" font-size="14.00">DEPENDS</text>
</g>
<!-- github.com/satori/go.uuid -->
<g id="node21" class="node">
<title>github.com/satori/go.uuid</title>
<ellipse fill="none" stroke="black" cx="4466.29" cy="-18" rx="129.98" ry="18"/>
<text text-anchor="middle" x="4466.29" y="-14.3" font-family="Times,serif" font-size="14.00">github.com/satori/go.uuid</text>
</g>
<!-- github.com/kubernetes/autoscaler/cluster&#45;autoscaler&#45;&gt;github.com/satori/go.uuid -->
<g id="edge20" class="edge">
<title>github.com/kubernetes/autoscaler/cluster&#45;autoscaler&#45;&gt;github.com/satori/go.uuid</title>
<path fill="none" stroke="black" d="M5097.55,-90.99C5026.33,-84.89 4941.57,-77.17 4865.29,-69 4763.11,-58.05 4646.51,-43.16 4565.86,-32.48"/>
<polygon fill="black" stroke="black" points="4566.09,-28.98 4555.72,-31.14 4565.17,-35.92 4566.09,-28.98"/>
<text text-anchor="middle" x="4903.29" y="-57.8" font-family="Times,serif" font-size="14.00">DEPENDS</text>
</g>
<!-- github.com/spf13/pflag -->
<g id="node22" class="node">
<title>github.com/spf13/pflag</title>
<ellipse fill="none" stroke="black" cx="4732.29" cy="-18" rx="117.78" ry="18"/>
<text text-anchor="middle" x="4732.29" y="-14.3" font-family="Times,serif" font-size="14.00">github.com/spf13/pflag</text>
</g>
<!-- github.com/kubernetes/autoscaler/cluster&#45;autoscaler&#45;&gt;github.com/spf13/pflag -->
<g id="edge21" class="edge">
<title>github.com/kubernetes/autoscaler/cluster&#45;autoscaler&#45;&gt;github.com/spf13/pflag</title>
<path fill="none" stroke="black" d="M5158.53,-88.42C5120.29,-82.41 5076.26,-75.44 5036.29,-69 4962.88,-57.18 4879.56,-43.45 4818.74,-33.37"/>
<polygon fill="black" stroke="black" points="4819.23,-29.91 4808.79,-31.73 4818.08,-36.81 4819.23,-29.91"/>
<text text-anchor="middle" x="5074.29" y="-57.8" font-family="Times,serif" font-size="14.00">DEPENDS</text>
</g>
<!-- github.com/stretchr/testify -->
<g id="node23" class="node">
<title>github.com/stretchr/testify</title>
<ellipse fill="none" stroke="black" cx="5003.29" cy="-18" rx="135.68" ry="18"/>
<text text-anchor="middle" x="5003.29" y="-14.3" font-family="Times,serif" font-size="14.00">github.com/stretchr/testify</text>
</g>
<!-- github.com/kubernetes/autoscaler/cluster&#45;autoscaler&#45;&gt;github.com/stretchr/testify -->
<g id="edge22" class="edge">
<title>github.com/kubernetes/autoscaler/cluster&#45;autoscaler&#45;&gt;github.com/stretchr/testify</title>
<path fill="none" stroke="black" d="M5208.22,-87.31C5165.87,-73.19 5105.2,-52.97 5060.86,-38.19"/>
<polygon fill="black" stroke="black" points="5061.69,-34.78 5051.09,-34.93 5059.47,-41.42 5061.69,-34.78"/>
<text text-anchor="middle" x="5184.29" y="-57.8" font-family="Times,serif" font-size="14.00">DEPENDS</text>
</g>
<!-- golang.org/x/crypto -->
<g id="node24" class="node">
<title>golang.org/x/crypto</title>
<ellipse fill="none" stroke="black" cx="5258.29" cy="-18" rx="101.28" ry="18"/>
<text text-anchor="middle" x="5258.29" y="-14.3" font-family="Times,serif" font-size="14.00">golang.org/x/crypto</text>
</g>
<!-- github.com/kubernetes/autoscaler/cluster&#45;autoscaler&#45;&gt;golang.org/x/crypto -->
<g id="edge23" class="edge">
<title>github.com/kubernetes/autoscaler/cluster&#45;autoscaler&#45;&gt;golang.org/x/crypto</title>
<path fill="none" stroke="black" d="M5258.29,-86.8C5258.29,-75.16 5258.29,-59.55 5258.29,-46.24"/>
<polygon fill="black" stroke="black" points="5261.79,-46.18 5258.29,-36.18 5254.79,-46.18 5261.79,-46.18"/>
<text text-anchor="middle" x="5296.29" y="-57.8" font-family="Times,serif" font-size="14.00">DEPENDS</text>
</g>
<!-- golang.org/x/oauth2 -->
<g id="node25" class="node">
<title>golang.org/x/oauth2</title>
<ellipse fill="none" stroke="black" cx="5481.29" cy="-18" rx="103.98" ry="18"/>
<text text-anchor="middle" x="5481.29" y="-14.3" font-family="Times,serif" font-size="14.00">golang.org/x/oauth2</text>
</g>
<!-- github.com/kubernetes/autoscaler/cluster&#45;autoscaler&#45;&gt;golang.org/x/oauth2 -->
<g id="edge24" class="edge">
<title>github.com/kubernetes/autoscaler/cluster&#45;autoscaler&#45;&gt;golang.org/x/oauth2</title>
<path fill="none" stroke="black" d="M5302.35,-87.21C5339.33,-73.11 5392.15,-52.98 5430.82,-38.24"/>
<polygon fill="black" stroke="black" points="5432.23,-41.44 5440.33,-34.61 5429.74,-34.9 5432.23,-41.44"/>
<text text-anchor="middle" x="5421.29" y="-57.8" font-family="Times,serif" font-size="14.00">DEPENDS</text>
</g>
<!-- google.golang.org/api -->
<g id="node26" class="node">
<title>google.golang.org/api</title>
<ellipse fill="none" stroke="black" cx="5714.29" cy="-18" rx="111.28" ry="18"/>
<text text-anchor="middle" x="5714.29" y="-14.3" font-family="Times,serif" font-size="14.00">google.golang.org/api</text>
</g>
<!-- github.com/kubernetes/autoscaler/cluster&#45;autoscaler&#45;&gt;google.golang.org/api -->
<g id="edge25" class="edge">
<title>github.com/kubernetes/autoscaler/cluster&#45;autoscaler&#45;&gt;google.golang.org/api</title>
<path fill="none" stroke="black" d="M5353.56,-88.29C5388.15,-82.44 5427.52,-75.61 5463.29,-69 5522.25,-58.1 5588.8,-44.79 5638.55,-34.65"/>
<polygon fill="black" stroke="black" points="5639.49,-38.03 5648.59,-32.6 5638.09,-31.17 5639.49,-38.03"/>
<text text-anchor="middle" x="5578.29" y="-57.8" font-family="Times,serif" font-size="14.00">DEPENDS</text>
</g>
<!-- gopkg.in/gcfg.v1 -->
<g id="node27" class="node">
<title>gopkg.in/gcfg.v1</title>
<ellipse fill="none" stroke="black" cx="5931.29" cy="-18" rx="87.99" ry="18"/>
<text text-anchor="middle" x="5931.29" y="-14.3" font-family="Times,serif" font-size="14.00">gopkg.in/gcfg.v1</text>
</g>
<!-- github.com/kubernetes/autoscaler/cluster&#45;autoscaler&#45;&gt;gopkg.in/gcfg.v1 -->
<g id="edge26" class="edge">
<title>github.com/kubernetes/autoscaler/cluster&#45;autoscaler&#45;&gt;gopkg.in/gcfg.v1</title>
<path fill="none" stroke="black" d="M5415.31,-90.77C5479.02,-84.9 5553.26,-77.4 5620.29,-69 5715.78,-57.03 5739.33,-51.64 5834.29,-36 5841.82,-34.76 5849.68,-33.43 5857.51,-32.09"/>
<polygon fill="black" stroke="black" points="5858.15,-35.54 5867.41,-30.39 5856.96,-28.64 5858.15,-35.54"/>
<text text-anchor="middle" x="5762.29" y="-57.8" font-family="Times,serif" font-size="14.00">DEPENDS</text>
</g>
<!-- gopkg.in/yaml.v2 -->
<g id="node28" class="node">
<title>gopkg.in/yaml.v2</title>
<ellipse fill="none" stroke="black" cx="6127.29" cy="-18" rx="90.18" ry="18"/>
<text text-anchor="middle" x="6127.29" y="-14.3" font-family="Times,serif" font-size="14.00">gopkg.in/yaml.v2</text>
</g>
<!-- github.com/kubernetes/autoscaler/cluster&#45;autoscaler&#45;&gt;gopkg.in/yaml.v2 -->
<g id="edge27" class="edge">
<title>github.com/kubernetes/autoscaler/cluster&#45;autoscaler&#45;&gt;gopkg.in/yaml.v2</title>
<path fill="none" stroke="black" d="M5467.35,-94.64C5569.17,-89.05 5693.3,-80.71 5804.29,-69 5904.37,-58.44 5928.92,-51.85 6028.29,-36 6035.92,-34.78 6043.87,-33.48 6051.81,-32.15"/>
<polygon fill="black" stroke="black" points="6052.55,-35.58 6061.83,-30.47 6051.38,-28.68 6052.55,-35.58"/>
<text text-anchor="middle" x="5955.29" y="-57.8" font-family="Times,serif" font-size="14.00">DEPENDS</text>
</g>
<!-- k8s.io/api -->
<g id="node29" class="node">
<title>k8s.io/api</title>
<ellipse fill="none" stroke="black" cx="6291.29" cy="-18" rx="55.49" ry="18"/>
<text text-anchor="middle" x="6291.29" y="-14.3" font-family="Times,serif" font-size="14.00">k8s.io/api</text>
</g>
<!-- github.com/kubernetes/autoscaler/cluster&#45;autoscaler&#45;&gt;k8s.io/api -->
<g id="edge28" class="edge">
<title>github.com/kubernetes/autoscaler/cluster&#45;autoscaler&#45;&gt;k8s.io/api</title>
<path fill="none" stroke="black" d="M5496.66,-98.5C5641.65,-93.72 5830.43,-84.94 5997.29,-69 6099.65,-59.22 6125.5,-56.37 6226.29,-36 6231.04,-35.04 6235.96,-33.94 6240.88,-32.78"/>
<polygon fill="black" stroke="black" points="6242.01,-36.1 6250.89,-30.32 6240.34,-29.31 6242.01,-36.1"/>
<text text-anchor="middle" x="6166.29" y="-57.8" font-family="Times,serif" font-size="14.00">DEPENDS</text>
</g>
<!-- k8s.io/apimachinery -->
<g id="node30" class="node">
<title>k8s.io/apimachinery</title>
<ellipse fill="none" stroke="black" cx="6468.29" cy="-18" rx="103.98" ry="18"/>
<text text-anchor="middle" x="6468.29" y="-14.3" font-family="Times,serif" font-size="14.00">k8s.io/apimachinery</text>
</g>
<!-- github.com/kubernetes/autoscaler/cluster&#45;autoscaler&#45;&gt;k8s.io/apimachinery -->
<g id="edge29" class="edge">
<title>github.com/kubernetes/autoscaler/cluster&#45;autoscaler&#45;&gt;k8s.io/apimachinery</title>
<path fill="none" stroke="black" d="M5500.78,-99.29C5736.16,-93.96 6076.59,-84 6208.29,-69 6273.94,-61.52 6347.83,-46.68 6400.02,-35.1"/>
<polygon fill="black" stroke="black" points="6400.83,-38.5 6409.83,-32.9 6399.3,-31.67 6400.83,-38.5"/>
<text text-anchor="middle" x="6340.29" y="-57.8" font-family="Times,serif" font-size="14.00">DEPENDS</text>
</g>
<!-- k8s.io/apiserver -->
<g id="node31" class="node">
<title>k8s.io/apiserver</title>
<ellipse fill="none" stroke="black" cx="6675.29" cy="-18" rx="85.29" ry="18"/>
<text text-anchor="middle" x="6675.29" y="-14.3" font-family="Times,serif" font-size="14.00">k8s.io/apiserver</text>
</g>
<!-- github.com/kubernetes/autoscaler/cluster&#45;autoscaler&#45;&gt;k8s.io/apiserver -->
<g id="edge30" class="edge">
<title>github.com/kubernetes/autoscaler/cluster&#45;autoscaler&#45;&gt;k8s.io/apiserver</title>
<path fill="none" stroke="black" d="M5504.47,-100.16C5782.79,-95.15 6218.47,-85.06 6382.29,-69 6460.21,-61.36 6548.69,-45.21 6607.84,-33.33"/>
<polygon fill="black" stroke="black" points="6608.69,-36.72 6617.8,-31.31 6607.3,-29.86 6608.69,-36.72"/>
<text text-anchor="middle" x="6526.29" y="-57.8" font-family="Times,serif" font-size="14.00">DEPENDS</text>
</g>
<!-- k8s.io/client&#45;go -->
<g id="node32" class="node">
<title>k8s.io/client&#45;go</title>
<ellipse fill="none" stroke="black" cx="6859.29" cy="-18" rx="81.49" ry="18"/>
<text text-anchor="middle" x="6859.29" y="-14.3" font-family="Times,serif" font-size="14.00">k8s.io/client&#45;go</text>
</g>
<!-- github.com/kubernetes/autoscaler/cluster&#45;autoscaler&#45;&gt;k8s.io/client&#45;go -->
<g id="edge31" class="edge">
<title>github.com/kubernetes/autoscaler/cluster&#45;autoscaler&#45;&gt;k8s.io/client&#45;go</title>
<path fill="none" stroke="black" d="M5508.53,-101.37C5829.95,-97.28 6369.97,-87.84 6568.29,-69 6646.32,-61.59 6734.95,-45.19 6793.68,-33.19"/>
<polygon fill="black" stroke="black" points="6794.48,-36.6 6803.57,-31.15 6793.07,-29.74 6794.48,-36.6"/>
<text text-anchor="middle" x="6719.29" y="-57.8" font-family="Times,serif" font-size="14.00">DEPENDS</text>
</g>
<!-- k8s.io/cloud&#45;provider -->
<g id="node33" class="node">
<title>k8s.io/cloud&#45;provider</title>
<ellipse fill="none" stroke="black" cx="7067.29" cy="-18" rx="108.58" ry="18"/>
<text text-anchor="middle" x="7067.29" y="-14.3" font-family="Times,serif" font-size="14.00">k8s.io/cloud&#45;provider</text>
</g>
<!-- github.com/kubernetes/autoscaler/cluster&#45;autoscaler&#45;&gt;k8s.io/cloud&#45;provider -->
<g id="edge32" class="edge">
<title>github.com/kubernetes/autoscaler/cluster&#45;autoscaler&#45;&gt;k8s.io/cloud&#45;provider</title>
<path fill="none" stroke="black" d="M5511.03,-102.36C5874.4,-99.27 6526.5,-90.81 6761.29,-69 6840.37,-61.65 6929.93,-46.17 6991.63,-34.37"/>
<polygon fill="black" stroke="black" points="6992.51,-37.76 7001.67,-32.43 6991.19,-30.89 6992.51,-37.76"/>
<text text-anchor="middle" x="6909.29" y="-57.8" font-family="Times,serif" font-size="14.00">DEPENDS</text>
</g>
<!-- k8s.io/component&#45;base -->
<g id="node34" class="node">
<title>k8s.io/component&#45;base</title>
<ellipse fill="none" stroke="black" cx="7310.29" cy="-18" rx="116.18" ry="18"/>
<text text-anchor="middle" x="7310.29" y="-14.3" font-family="Times,serif" font-size="14.00">k8s.io/component&#45;base</text>
</g>
<!-- github.com/kubernetes/autoscaler/cluster&#45;autoscaler&#45;&gt;k8s.io/component&#45;base -->
<g id="edge33" class="edge">
<title>github.com/kubernetes/autoscaler/cluster&#45;autoscaler&#45;&gt;k8s.io/component&#45;base</title>
<path fill="none" stroke="black" d="M5511.33,-102.42C5913.17,-99.3 6679.57,-90.65 6951.29,-69 7045.95,-61.46 7153.75,-45.43 7226.31,-33.55"/>
<polygon fill="black" stroke="black" points="7227.02,-36.98 7236.31,-31.9 7225.88,-30.07 7227.02,-36.98"/>
<text text-anchor="middle" x="7118.29" y="-57.8" font-family="Times,serif" font-size="14.00">DEPENDS</text>
</g>
<!-- k8s.io/component&#45;helpers -->
<g id="node35" class="node">
<title>k8s.io/component&#45;helpers</title>
<ellipse fill="none" stroke="black" cx="7574.29" cy="-18" rx="129.98" ry="18"/>
<text text-anchor="middle" x="7574.29" y="-14.3" font-family="Times,serif" font-size="14.00">k8s.io/component&#45;helpers</text>
</g>
<!-- github.com/kubernetes/autoscaler/cluster&#45;autoscaler&#45;&gt;k8s.io/component&#45;helpers -->
<g id="edge34" class="edge">
<title>github.com/kubernetes/autoscaler/cluster&#45;autoscaler&#45;&gt;k8s.io/component&#45;helpers</title>
<path fill="none" stroke="black" d="M5511.7,-102.52C5953.55,-99.4 6847.7,-90.58 7160.29,-69 7270.47,-61.4 7396.35,-45.1 7480.09,-33.17"/>
<polygon fill="black" stroke="black" points="7480.68,-36.62 7490.09,-31.74 7479.69,-29.69 7480.68,-36.62"/>
<text text-anchor="middle" x="7347.29" y="-57.8" font-family="Times,serif" font-size="14.00">DEPENDS</text>
</g>
<!-- k8s.io/klog/v2 -->
<g id="node36" class="node">
<title>k8s.io/klog/v2</title>
<ellipse fill="none" stroke="black" cx="7797.29" cy="-18" rx="74.99" ry="18"/>
<text text-anchor="middle" x="7797.29" y="-14.3" font-family="Times,serif" font-size="14.00">k8s.io/klog/v2</text>
</g>
<!-- github.com/kubernetes/autoscaler/cluster&#45;autoscaler&#45;&gt;k8s.io/klog/v2 -->
<g id="edge35" class="edge">
<title>github.com/kubernetes/autoscaler/cluster&#45;autoscaler&#45;&gt;k8s.io/klog/v2</title>
<path fill="none" stroke="black" d="M5511.55,-102.54C5994.63,-99.32 7031.46,-90.12 7389.29,-69 7533.78,-60.47 7570.18,-57.72 7713.29,-36 7719.91,-35 7726.8,-33.82 7733.66,-32.56"/>
<polygon fill="black" stroke="black" points="7734.48,-35.97 7743.66,-30.67 7733.18,-29.09 7734.48,-35.97"/>
<text text-anchor="middle" x="7617.29" y="-57.8" font-family="Times,serif" font-size="14.00">DEPENDS</text>
</g>
<!-- k8s.io/kubernetes -->
<g id="node37" class="node">
<title>k8s.io/kubernetes</title>
<ellipse fill="none" stroke="black" cx="7983.29" cy="-18" rx="92.88" ry="18"/>
<text text-anchor="middle" x="7983.29" y="-14.3" font-family="Times,serif" font-size="14.00">k8s.io/kubernetes</text>
</g>
<!-- github.com/kubernetes/autoscaler/cluster&#45;autoscaler&#45;&gt;k8s.io/kubernetes -->
<g id="edge36" class="edge">
<title>github.com/kubernetes/autoscaler/cluster&#45;autoscaler&#45;&gt;k8s.io/kubernetes</title>
<path fill="none" stroke="black" d="M5513.85,-104.58C6044.24,-105.06 7249.23,-102.32 7659.29,-69 7746.26,-61.93 7845.25,-45.4 7910.68,-33.27"/>
<polygon fill="black" stroke="black" points="7911.7,-36.64 7920.89,-31.37 7910.42,-29.76 7911.7,-36.64"/>
<text text-anchor="middle" x="7823.29" y="-57.8" font-family="Times,serif" font-size="14.00">DEPENDS</text>
</g>
<!-- k8s.io/legacy&#45;cloud&#45;providers -->
<g id="node38" class="node">
<title>k8s.io/legacy&#45;cloud&#45;providers</title>
<ellipse fill="none" stroke="black" cx="8240.29" cy="-18" rx="145.67" ry="18"/>
<text text-anchor="middle" x="8240.29" y="-14.3" font-family="Times,serif" font-size="14.00">k8s.io/legacy&#45;cloud&#45;providers</text>
</g>
<!-- github.com/kubernetes/autoscaler/cluster&#45;autoscaler&#45;&gt;k8s.io/legacy&#45;cloud&#45;providers -->
<g id="edge37" class="edge">
<title>github.com/kubernetes/autoscaler/cluster&#45;autoscaler&#45;&gt;k8s.io/legacy&#45;cloud&#45;providers</title>
<path fill="none" stroke="black" d="M5513.68,-104.45C6077.43,-104.8 7413.99,-102 7865.29,-69 7962.15,-61.92 8072.22,-46.34 8147.93,-34.44"/>
<polygon fill="black" stroke="black" points="8148.58,-37.88 8157.91,-32.86 8147.49,-30.96 8148.58,-37.88"/>
<text text-anchor="middle" x="8048.29" y="-57.8" font-family="Times,serif" font-size="14.00">DEPENDS</text>
</g>
<!-- k8s.io/utils -->
<g id="node39" class="node">
<title>k8s.io/utils</title>
<ellipse fill="none" stroke="black" cx="8465.29" cy="-18" rx="61.99" ry="18"/>
<text text-anchor="middle" x="8465.29" y="-14.3" font-family="Times,serif" font-size="14.00">k8s.io/utils</text>
</g>
<!-- github.com/kubernetes/autoscaler/cluster&#45;autoscaler&#45;&gt;k8s.io/utils -->
<g id="edge38" class="edge">
<title>github.com/kubernetes/autoscaler/cluster&#45;autoscaler&#45;&gt;k8s.io/utils</title>
<path fill="none" stroke="black" d="M5513.37,-103.97C6111.95,-103.39 7593.57,-98.87 8090.29,-69 8226.39,-60.81 8260.98,-59.47 8395.29,-36 8400.4,-35.11 8405.68,-34.06 8410.96,-32.93"/>
<polygon fill="black" stroke="black" points="8412.04,-36.27 8421.04,-30.67 8410.51,-29.44 8412.04,-36.27"/>
<text text-anchor="middle" x="8318.29" y="-57.8" font-family="Times,serif" font-size="14.00">DEPENDS</text>
</g>
<!-- cluster&#45;autoscaler -->
<g id="node4" class="node">
<title>cluster&#45;autoscaler</title>
<ellipse fill="none" stroke="black" cx="8636.29" cy="-192" rx="94.48" ry="18"/>
<text text-anchor="middle" x="8636.29" y="-188.3" font-family="Times,serif" font-size="14.00">cluster&#45;autoscaler</text>
</g>
<!-- cluster&#45;autoscaler&#45;&gt;distroless -->
<g id="edge3" class="edge">
<title>cluster&#45;autoscaler&#45;&gt;distroless</title>
<path fill="none" stroke="black" d="M8636.29,-173.8C8636.29,-162.16 8636.29,-146.55 8636.29,-133.24"/>
<polygon fill="black" stroke="black" points="8639.79,-133.18 8636.29,-123.18 8632.79,-133.18 8639.79,-133.18"/>
<text text-anchor="middle" x="8713.29" y="-144.8" font-family="Times,serif" font-size="14.00">HAS_PREREQUISITE</text>
</g>
</g>
</svg>
