<?xml version="1.0" encoding="UTF-8" standalone="no"?>
<!DOCTYPE svg PUBLIC "-//W3C//DTD SVG 1.1//EN"
 "http://www.w3.org/Graphics/SVG/1.1/DTD/svg11.dtd">
<!-- Generated by graphviz version 2.43.0 (0)
 -->
<!-- Title: %3 Pages: 1 -->
<svg width="369pt" height="218pt"
 viewBox="0.00 0.00 369.18 218.00" xmlns="http://www.w3.org/2000/svg" xmlns:xlink="http://www.w3.org/1999/xlink">
<g id="graph0" class="graph" transform="scale(1 1) rotate(0) translate(4 214)">
<title>%3</title>
<polygon fill="white" stroke="transparent" points="-4,4 -4,-214 365.18,-214 365.18,4 -4,4"/>
<!-- cluster&#45;autoscaler:v1.17.2 -->
<g id="node1" class="node">
<title>cluster&#45;autoscaler:v1.17.2</title>
<ellipse fill="none" stroke="black" cx="131.94" cy="-192" rx="131.88" ry="18"/>
<text text-anchor="middle" x="131.94" y="-188.3" font-family="Times,serif" font-size="14.00">cluster&#45;autoscaler:v1.17.2</text>
</g>
<!-- distroless -->
<g id="node2" class="node">
<title>distroless</title>
<ellipse fill="none" stroke="black" cx="91.94" cy="-18" rx="55.79" ry="18"/>
<text text-anchor="middle" x="91.94" y="-14.3" font-family="Times,serif" font-size="14.00">distroless</text>
</g>
<!-- cluster&#45;autoscaler:v1.17.2&#45;&gt;distroless -->
<g id="edge1" class="edge">
<title>cluster&#45;autoscaler:v1.17.2&#45;&gt;distroless</title>
<path fill="none" stroke="black" d="M115.89,-174.13C104.8,-161.25 91.01,-142.45 84.94,-123 77.05,-97.73 80.47,-67.38 84.84,-46.01"/>
<polygon fill="black" stroke="black" points="88.31,-46.54 87.09,-36.01 81.48,-45 88.31,-46.54"/>
<text text-anchor="middle" x="124.44" y="-101.3" font-family="Times,serif" font-size="14.00">CONTAINS</text>
</g>
<!-- cluster&#45;autoscaler -->
<g id="node3" class="node">
<title>cluster&#45;autoscaler</title>
<ellipse fill="none" stroke="black" cx="266.94" cy="-105" rx="94.48" ry="18"/>
<text text-anchor="middle" x="266.94" y="-101.3" font-family="Times,serif" font-size="14.00">cluster&#45;autoscaler</text>
</g>
<!-- cluster&#45;autoscaler:v1.17.2&#45;&gt;cluster&#45;autoscaler -->
<g id="edge2" class="edge">
<title>cluster&#45;autoscaler:v1.17.2&#45;&gt;cluster&#45;autoscaler</title>
<path fill="none" stroke="black" d="M158.61,-174.21C179.64,-160.97 209.14,-142.39 232.04,-127.97"/>
<polygon fill="black" stroke="black" points="234.18,-130.76 240.78,-122.47 230.45,-124.84 234.18,-130.76"/>
<text text-anchor="middle" x="246.44" y="-144.8" font-family="Times,serif" font-size="14.00">CONTAINS</text>
</g>
<!-- cluster&#45;autoscaler&#45;&gt;distroless -->
<g id="edge3" class="edge">
<title>cluster&#45;autoscaler&#45;&gt;distroless</title>
<path fill="none" stroke="black" d="M234.02,-88.01C204.68,-73.76 161.71,-52.89 130.71,-37.83"/>
<polygon fill="black" stroke="black" points="132.03,-34.58 121.5,-33.36 128.97,-40.88 132.03,-34.58"/>
<text text-anchor="middle" x="265.94" y="-57.8" font-family="Times,serif" font-size="14.00">HAS_PREREQUISITE</text>
</g>
</g>
</svg>
