<?xml version="1.0" encoding="UTF-8" standalone="no"?>
<!DOCTYPE svg PUBLIC "-//W3C//DTD SVG 1.1//EN"
 "http://www.w3.org/Graphics/SVG/1.1/DTD/svg11.dtd">
<!-- Generated by graphviz version 2.43.0 (0)
 -->
<!-- Title: %3 Pages: 1 -->
<svg width="572pt" height="413pt"
 viewBox="0.00 0.00 571.54 413.00" xmlns="http://www.w3.org/2000/svg" xmlns:xlink="http://www.w3.org/1999/xlink">
<g id="graph0" class="graph" transform="scale(1 1) rotate(0) translate(4 409)">
<title>%3</title>
<polygon fill="white" stroke="transparent" points="-4,4 -4,-409 567.54,-409 567.54,4 -4,4"/>
<!-- jaeger -->
<g id="node1" class="node">
<title>jaeger</title>
<ellipse fill="none" stroke="black" cx="283.54" cy="-387" rx="40.09" ry="18"/>
<text text-anchor="middle" x="283.54" y="-383.3" font-family="Times,serif" font-size="14.00">jaeger</text>
</g>
<!-- jaeger&#45;collector -->
<g id="node2" class="node">
<title>jaeger&#45;collector</title>
<ellipse fill="none" stroke="black" cx="276.54" cy="-192" rx="83.39" ry="18"/>
<text text-anchor="middle" x="276.54" y="-188.3" font-family="Times,serif" font-size="14.00">jaeger&#45;collector</text>
</g>
<!-- jaeger&#45;&gt;jaeger&#45;collector -->
<g id="edge1" class="edge">
<title>jaeger&#45;&gt;jaeger&#45;collector</title>
<path fill="none" stroke="black" d="M282.92,-368.87C281.71,-335.32 279,-260.71 277.53,-220.29"/>
<polygon fill="black" stroke="black" points="281.02,-219.96 277.16,-210.09 274.03,-220.21 281.02,-219.96"/>
<text text-anchor="middle" x="320.04" y="-296.3" font-family="Times,serif" font-size="14.00">CONTAINS</text>
</g>
<!-- jaeger&#45;query -->
<g id="node3" class="node">
<title>jaeger&#45;query</title>
<ellipse fill="none" stroke="black" cx="69.54" cy="-246" rx="69.59" ry="18"/>
<text text-anchor="middle" x="69.54" y="-242.3" font-family="Times,serif" font-size="14.00">jaeger&#45;query</text>
</g>
<!-- jaeger&#45;&gt;jaeger&#45;query -->
<g id="edge2" class="edge">
<title>jaeger&#45;&gt;jaeger&#45;query</title>
<path fill="none" stroke="black" d="M243.73,-383.4C195.56,-379.45 118.34,-370.25 97.54,-351 76.48,-331.5 70.61,-298 69.29,-274.29"/>
<polygon fill="black" stroke="black" points="72.78,-274.06 68.96,-264.18 65.78,-274.28 72.78,-274.06"/>
<text text-anchor="middle" x="137.04" y="-339.8" font-family="Times,serif" font-size="14.00">CONTAINS</text>
</g>
<!-- jaeger&#45;agent -->
<g id="node4" class="node">
<title>jaeger&#45;agent</title>
<ellipse fill="none" stroke="black" cx="174.54" cy="-300" rx="69.59" ry="18"/>
<text text-anchor="middle" x="174.54" y="-296.3" font-family="Times,serif" font-size="14.00">jaeger&#45;agent</text>
</g>
<!-- jaeger&#45;&gt;jaeger&#45;agent -->
<g id="edge3" class="edge">
<title>jaeger&#45;&gt;jaeger&#45;agent</title>
<path fill="none" stroke="black" d="M246.16,-379.93C227.21,-375.06 205.17,-366.38 190.54,-351 184.63,-344.78 180.9,-336.36 178.55,-328.21"/>
<polygon fill="black" stroke="black" points="181.9,-327.17 176.25,-318.21 175.08,-328.74 181.9,-327.17"/>
<text text-anchor="middle" x="230.04" y="-339.8" font-family="Times,serif" font-size="14.00">CONTAINS</text>
</g>
<!-- cassandra -->
<g id="node5" class="node">
<title>cassandra</title>
<ellipse fill="none" stroke="black" cx="422.54" cy="-18" rx="57.69" ry="18"/>
<text text-anchor="middle" x="422.54" y="-14.3" font-family="Times,serif" font-size="14.00">cassandra</text>
</g>
<!-- jaeger&#45;&gt;cassandra -->
<g id="edge4" class="edge">
<title>jaeger&#45;&gt;cassandra</title>
<path fill="none" stroke="black" d="M324.22,-386.08C382.95,-383.83 484.54,-369.96 484.54,-301 484.54,-301 484.54,-301 484.54,-104 484.54,-80.92 483.7,-72.96 470.54,-54 467.08,-49.01 462.66,-44.46 457.92,-40.41"/>
<polygon fill="black" stroke="black" points="459.79,-37.44 449.74,-34.09 455.51,-42.98 459.79,-37.44"/>
<text text-anchor="middle" x="524.04" y="-188.3" font-family="Times,serif" font-size="14.00">CONTAINS</text>
</g>
<!-- cassandra&#45;schema -->
<g id="node6" class="node">
<title>cassandra&#45;schema</title>
<ellipse fill="none" stroke="black" cx="315.54" cy="-105" rx="95.58" ry="18"/>
<text text-anchor="middle" x="315.54" y="-101.3" font-family="Times,serif" font-size="14.00">cassandra&#45;schema</text>
</g>
<!-- jaeger&#45;&gt;cassandra&#45;schema -->
<g id="edge5" class="edge">
<title>jaeger&#45;&gt;cassandra&#45;schema</title>
<path fill="none" stroke="black" d="M308.06,-372.49C326.77,-360.73 351.33,-341.85 363.54,-318 381.52,-282.89 396.31,-175.13 376.54,-141 373.53,-135.79 369.41,-131.29 364.72,-127.41"/>
<polygon fill="black" stroke="black" points="366.57,-124.43 356.4,-121.47 362.5,-130.13 366.57,-124.43"/>
<text text-anchor="middle" x="423.04" y="-242.3" font-family="Times,serif" font-size="14.00">CONTAINS</text>
</g>
<!-- jaeger&#45;collector&#45;&gt;cassandra&#45;schema -->
<g id="edge6" class="edge">
<title>jaeger&#45;collector&#45;&gt;cassandra&#45;schema</title>
<path fill="none" stroke="black" d="M269.99,-174.01C267.18,-163.94 265.55,-151.21 270.54,-141 272.66,-136.67 275.6,-132.72 278.97,-129.17"/>
<polygon fill="black" stroke="black" points="281.34,-131.74 286.38,-122.42 276.63,-126.57 281.34,-131.74"/>
<text text-anchor="middle" x="323.54" y="-144.8" font-family="Times,serif" font-size="14.00">DEPENDS_ON</text>
</g>
<!-- jaeger&#45;query&#45;&gt;cassandra&#45;schema -->
<g id="edge7" class="edge">
<title>jaeger&#45;query&#45;&gt;cassandra&#45;schema</title>
<path fill="none" stroke="black" d="M66.84,-228C65.34,-212.16 65.85,-188.81 78.54,-174 99.16,-149.95 175.16,-130.98 235.61,-119.25"/>
<polygon fill="black" stroke="black" points="236.38,-122.67 245.55,-117.36 235.07,-115.79 236.38,-122.67"/>
<text text-anchor="middle" x="131.54" y="-188.3" font-family="Times,serif" font-size="14.00">DEPENDS_ON</text>
</g>
<!-- jaeger&#45;agent&#45;&gt;jaeger&#45;collector -->
<g id="edge8" class="edge">
<title>jaeger&#45;agent&#45;&gt;jaeger&#45;collector</title>
<path fill="none" stroke="black" d="M165.53,-282.13C158.61,-266.6 152,-243.66 163.54,-228 171.41,-217.33 182.49,-209.81 194.67,-204.54"/>
<polygon fill="black" stroke="black" points="196.06,-207.76 204.16,-200.93 193.57,-201.22 196.06,-207.76"/>
<text text-anchor="middle" x="216.54" y="-242.3" font-family="Times,serif" font-size="14.00">DEPENDS_ON</text>
</g>
<!-- cassandra&#45;schema&#45;&gt;cassandra -->
<g id="edge9" class="edge">
<title>cassandra&#45;schema&#45;&gt;cassandra</title>
<path fill="none" stroke="black" d="M330.04,-87.18C339.33,-76.94 351.96,-63.95 364.54,-54 371.09,-48.82 378.47,-43.82 385.72,-39.3"/>
<polygon fill="black" stroke="black" points="387.99,-42.01 394.75,-33.85 384.38,-36.02 387.99,-42.01"/>
<text text-anchor="middle" x="417.54" y="-57.8" font-family="Times,serif" font-size="14.00">DEPENDS_ON</text>
</g>
</g>
</svg>
