<?xml version="1.0" encoding="UTF-8" standalone="no"?>
<!DOCTYPE svg PUBLIC "-//W3C//DTD SVG 1.1//EN"
 "http://www.w3.org/Graphics/SVG/1.1/DTD/svg11.dtd">
<!-- Generated by graphviz version 2.43.0 (0)
 -->
<!-- Title: %3 Pages: 1 -->
<svg width="738pt" height="152pt"
 viewBox="0.00 0.00 737.85 152.00" xmlns="http://www.w3.org/2000/svg" xmlns:xlink="http://www.w3.org/1999/xlink">
<g id="graph0" class="graph" transform="scale(1 1) rotate(0) translate(4 148)">
<title>%3</title>
<polygon fill="white" stroke="transparent" points="-4,4 -4,-148 733.85,-148 733.85,4 -4,4"/>
<!-- distroless -->
<g id="node1" class="node">
<title>distroless</title>
<ellipse fill="none" stroke="black" cx="150.14" cy="-72" rx="150.27" ry="18"/>
<text text-anchor="middle" x="150.14" y="-68.3" font-family="Times,serif" font-size="14.00">DocumentRef&#45;distroless&#45;static</text>
</g>
<!-- base -->
<g id="node2" class="node">
<title>base</title>
<ellipse fill="none" stroke="black" cx="572.56" cy="-126" rx="150.57" ry="18"/>
<text text-anchor="middle" x="572.56" y="-122.3" font-family="Times,serif" font-size="14.00">DocumentRef&#45;debian&#45;basefiles</text>
</g>
<!-- distroless&#45;&gt;base -->
<g id="edge1" class="edge">
<title>distroless&#45;&gt;base</title>
<path fill="none" stroke="black" d="M253.18,-85.11C315.35,-93.09 394.88,-103.31 458.89,-111.53"/>
<polygon fill="black" stroke="black" points="458.66,-115.03 469.03,-112.83 459.56,-108.09 458.66,-115.03"/>
<text text-anchor="middle" x="357.77" y="-105.8" font-family="Times,serif" font-size="14.00">CONTAINS</text>
</g>
<!-- netbase -->
<g id="node3" class="node">
<title>netbase</title>
<ellipse fill="none" stroke="black" cx="572.56" cy="-72" rx="146.77" ry="18"/>
<text text-anchor="middle" x="572.56" y="-68.3" font-family="Times,serif" font-size="14.00">DocumentRef&#45;debian&#45;netbase</text>
</g>
<!-- distroless&#45;&gt;netbase -->
<g id="edge2" class="edge">
<title>distroless&#45;&gt;netbase</title>
<path fill="none" stroke="black" d="M300.55,-72C337.81,-72 377.87,-72 415.44,-72"/>
<polygon fill="black" stroke="black" points="415.46,-75.5 425.46,-72 415.46,-68.5 415.46,-75.5"/>
<text text-anchor="middle" x="357.77" y="-75.8" font-family="Times,serif" font-size="14.00">CONTAINS</text>
</g>
<!-- tzdata -->
<g id="node4" class="node">
<title>tzdata</title>
<ellipse fill="none" stroke="black" cx="572.56" cy="-18" rx="157.07" ry="18"/>
<text text-anchor="middle" x="572.56" y="-14.3" font-family="Times,serif" font-size="14.00">DocumentRef&#45;debian&#45;timezones</text>
</g>
<!-- distroless&#45;&gt;tzdata -->
<g id="edge3" class="edge">
<title>distroless&#45;&gt;tzdata</title>
<path fill="none" stroke="black" d="M253.18,-58.89C314.77,-50.98 393.4,-40.88 457.11,-32.7"/>
<polygon fill="black" stroke="black" points="457.73,-36.15 467.2,-31.4 456.83,-29.21 457.73,-36.15"/>
<text text-anchor="middle" x="357.77" y="-52.8" font-family="Times,serif" font-size="14.00">CONTAINS</text>
</g>
</g>
</svg>
